<!--?xml version="1.0" encoding="utf-8"?-->
<!-- Svg Vector Icons : http://www.onlinewebfonts.com/icon -->

<svg version="1.1" xmlns="http://www.w3.org/2000/svg" xmlns:xlink="http://www.w3.org/1999/xlink" x="0px" y="0px" viewBox="0 0 256 256" enable-background="new 0 0 256 256" xml:space="preserve">
<metadata> Svg Vector Icons : http://www.onlinewebfonts.com/icon </metadata>
<g><g><g><path fill="#b6b6b6" data-title="Layer 0" xs="0" d="M102,156.7c-7.4-2.1-3.6-3.4-8.5-3.4c-11.9,0-19.3,7.5-19.3,16.9c0,9.3,5.7,16.9,17.6,16.9c11.9,0,17.6-7.5,17.6-16.9v-50.6l51.5-25.3v54c-7.4-2.1-3-3.4-7.9-3.4c-11.9,0-19,7.5-19,16.9c0,9.3,5.2,16.9,17.1,16.9c11.9,0,17.1-7.5,17.1-16.9V69L102,102.7V156.7L102,156.7z"/><path fill="#b6b6b6" data-title="Layer 1" xs="1" d="M128,10C62.8,10,10,62.8,10,128c0,65.2,52.8,118,118,118c65.2,0,118-52.8,118-118C246,62.8,193.2,10,128,10z M128,227.6c-55,0-99.6-44.6-99.6-99.6S73,28.4,128,28.4c55,0,99.6,44.6,99.6,99.6S183,227.6,128,227.6z"/></g></g></g>
</svg>