<svg width="1644" height="641" xmlns="http://www.w3.org/2000/svg" xmlns:xlink="http://www.w3.org/1999/xlink" xml:space="preserve" overflow="hidden"><defs><clipPath id="clip0"><rect x="0" y="1561" width="1644" height="641"/></clipPath><linearGradient x1="822" y1="2202" x2="822" y2="1561" gradientUnits="userSpaceOnUse" spreadMethod="reflect" id="fill1"><stop offset="0" stop-color="#F2F2F2"/><stop offset="0.3" stop-color="#BFBFBF"/><stop offset="0.79" stop-color="#F2F2F2"/><stop offset="1" stop-color="#F2F2F2"/></linearGradient></defs><g clip-path="url(#clip0)" transform="matrix(1 0 0 1 0 -1561)"><path d="M651.128 2042.48 651.128 2062.81 678.376 2062.81 662.029 2055.2C656.575 2052.66 652.944 2041.22 651.128 2042.48ZM420.049 1696.97 432.324 1704.97C435.393 1706.97 437.693 1714.24 439.224 1717.18L440.206 1718.07 440.206 1849.77 317.13 1849.77 317.13 1713.06 321.801 1705.92C324.471 1701.83 336.511 1699.11 335.18 1697.75L313.784 1697.75 313.784 1697.81 235.479 1697.81 235.479 1697.4 215.023 1697.4 227.298 1705.4C229.341 1706.73 231.043 1710.41 232.41 1713.58L234.055 1717.29 234.055 2046.96 232.111 2051.12C229.569 2056.56 218.113 2060.19 219.381 2062L234.055 2062 234.055 2062.71 317.13 2062.71 317.13 2062.56 343.482 2062.56 327.134 2054.95C323.047 2053.04 319.978 2046.13 317.935 2043.33L317.13 2042.81 317.13 1895.08 440.206 1895.08 440.206 2045.3 437.137 2051.87C434.596 2057.32 423.14 2060.94 424.407 2062.76L444.763 2062.76 444.763 2062.71 522.52 2062.71 522.52 2062.56 549.633 2062.56 533.279 2054.95C529.192 2053.04 526.13 2046.13 524.086 2043.33L522.52 2042.32 522.52 1715.85 529.006 1705.92C531.683 1701.83 543.723 1699.11 542.392 1697.75L520.996 1697.75 520.996 1697.81 440.498 1697.81 440.498 1696.97ZM878.889 1696.47C875.478 1696.47 868.657 1719.67 858.433 1742.86L878.86 1742.86 878.86 1743.3 958.525 1743.3 970.11 1750.86C974.203 1753.53 976.923 1765.55 978.29 1764.22L978.29 1761.86 979.159 1768.04 979.159 1977.51 975.571 2020.37C972.651 2029.38 967.91 2037.89 960.227 2045.35L941.366 2056.08 940.825 2056.17C937.116 2056.93 933.121 2057.69 928.201 2058.33L916.831 2059.3 904.99 2057.45C858.048 2047.93 859.316 2031.38 840.177 2010.76 821.423 1990.57 783.631 1933.83 763.118 1910.32L754.517 1901.71 753.812 1900.62C753.812 1901 754.325 1901.19 755.343 1901.19 758.789 1901.19 767.66 1899.47 781.95 1896.03 800.711 1891.7 817.807 1882.39 833.25 1868.12 848.693 1853.85 856.988 1832.32 858.134 1803.52 858.134 1733.05 817.365 1697.81 735.82 1697.81L569.861 1697.81 569.861 1697.14 549.412 1697.14 561.68 1705.14C563.73 1706.48 565.432 1710.15 566.792 1713.32L567.945 1715.93 567.945 2046.11 565.176 2052.05C562.634 2057.49 551.171 2061.12 552.445 2062.93L572.801 2062.93 572.801 2062.71 651.021 2062.71 651.021 1868.14 654.232 1873.79 652.303 1865.44 651.021 1865.44 651.021 1759.92 651.755 1759.92 651.755 1761.45 659.765 1749.2C661.103 1747.15 664.777 1745.46 667.96 1744.09L669.291 1743.3 725.482 1743.3C742.456 1743.3 756.112 1749.23 766.443 1761.08 776.781 1772.93 781.95 1788.92 781.95 1809.06 780.804 1847.16 758.341 1866.21 714.574 1866.21 711.384 1866.21 707.49 1866.08 702.897 1865.83 698.305 1865.57 695.429 1865.44 694.282 1865.44L653.406 1865.44 670.715 1888.12C736.503 1977.41 747.953 2026.92 796.005 2047.8L799.344 2048.79 810.352 2056.41C822.698 2058.26 833.705 2059.73 843.588 2060.9L850.451 2061.59 845.396 2062.71 854.31 2062.71 862.627 2062.81 870.11 2063.56C901.602 2066.08 918.831 2064.8 936.404 2064.07L953.364 2064 963.623 2064.13 961.609 2063.95 964.841 2063.94 964.841 2063.5 1011.88 2062.71 1044.51 2062.71 1100.43 2064.13C1074.61 2057.5 1065.52 2031.97 1062.59 2007.08L1062.23 2001.74 1062.23 1758.28 1069.03 1747.89 1076.38 1743.3 1151.14 1743.3 1172.37 1788.49 1176.62 1802.38C1192.54 1853.87 1213.8 1920.36 1232.71 1973.63 1240.36 2005.36 1286.49 2065.94 1300.65 2065.45L1301.88 2064.13 1303 2066.53 1305.09 2061.27 1307.75 2061.41 1307.48 2055.28 1449.63 1697.81 1419.71 1697.81 1421.02 1696.47 1367.75 1697.54C1367.75 1699.44 1371.48 1702.31 1377.08 1706.12L1391.08 1715.89 1317.17 1910.75 1216.1 1697.81 1162.54 1697.81 1162.54 1697.81 878.889 1697.81ZM47.9316 1561 1596.07 1561C1622.54 1561 1644 1582.49 1644 1609L1644 2154C1644 2180.51 1622.54 2202 1596.07 2202L47.9316 2202C21.4594 2202 0 2180.51 0 2154L0 1609C0 1582.49 21.4594 1561 47.9316 1561Z" fill="url(#fill1)" fill-rule="evenodd"/></g></svg>