<svg width="2309" height="899" xmlns="http://www.w3.org/2000/svg" xmlns:xlink="http://www.w3.org/1999/xlink" xml:space="preserve" overflow="hidden"><defs><clipPath id="clip0"><rect x="1031" y="746" width="2309" height="899"/></clipPath><linearGradient x1="2185.5" y1="1645" x2="2185.5" y2="746" gradientUnits="userSpaceOnUse" spreadMethod="reflect" id="fill1"><stop offset="0" stop-color="#0055D2"/><stop offset="0.3" stop-color="#002C83"/><stop offset="0.79" stop-color="#0043BD"/><stop offset="1" stop-color="#0052E2"/></linearGradient></defs><g clip-path="url(#clip0)" transform="translate(-1031 -746)"><path d="M1031 813.318C1031 776.139 1061.14 746 1098.32 746L3272.68 746C3309.86 746 3340 776.139 3340 813.318L3340 1577.68C3340 1614.86 3309.86 1645 3272.68 1645L1098.32 1645C1061.14 1645 1031 1614.86 1031 1577.68Z" fill="url(#fill1)" fill-rule="evenodd"/><path d="M1945.51 1421.28C1948.06 1419.5 1953.16 1435.55 1960.82 1439.11L1983.78 1449.78 1945.51 1449.78ZM1620.96 936.702 1649.68 936.702 1649.68 937.88 1762.74 937.88 1762.74 937.793 1792.79 937.793C1794.66 939.702 1777.75 943.52 1773.99 949.249L1764.88 963.178 1764.88 1421.05 1767.08 1422.46C1769.95 1426.39 1774.25 1436.09 1779.99 1438.76L1802.96 1449.43 1764.88 1449.43 1764.88 1449.64 1655.67 1449.64 1655.67 1449.72 1627.08 1449.72C1625.3 1447.17 1641.39 1442.09 1644.96 1434.45L1649.27 1425.23 1649.27 1214.54 1476.41 1214.54 1476.41 1421.73 1477.54 1422.46C1480.41 1426.39 1484.72 1436.09 1490.46 1438.76L1513.42 1449.43 1476.41 1449.43 1476.41 1449.64 1359.73 1449.64 1359.73 1448.65 1339.12 1448.65C1337.34 1446.11 1353.43 1441.02 1357 1433.39L1359.73 1427.56 1359.73 965.191 1357.42 959.992C1355.5 955.542 1353.11 950.39 1350.24 948.52L1333 937.299 1361.73 937.299 1361.73 937.88 1471.71 937.88 1471.71 937.793 1501.76 937.793C1503.63 939.702 1486.72 943.52 1482.97 949.249L1476.41 959.268 1476.41 1151 1649.27 1151 1649.27 966.29 1647.89 965.047C1645.74 960.917 1642.51 950.728 1638.2 947.922ZM2265.4 936 2265.4 937.88 2663.79 937.88 2663.79 937.881 2739.01 937.881 2880.96 1236.52 2984.78 963.234 2965.11 949.53C2957.25 944.18 2952.01 940.167 2952.01 937.492L3026.82 936.001 3024.98 937.881 3067 937.881 2867.35 1439.22 2867.73 1447.82 2864 1447.62 2861.07 1455 2859.49 1451.64 2857.77 1453.49C2837.87 1454.17 2773.09 1369.22 2762.34 1324.71 2735.79 1250 2705.93 1156.75 2683.57 1084.53L2677.6 1065.06 2647.78 1001.68 2542.78 1001.68 2532.45 1008.11 2522.91 1022.68 2522.91 1364.13 2523.41 1371.63C2527.53 1406.54 2540.29 1442.34 2576.55 1451.64L2498.02 1449.64 2452.18 1449.64 2386.12 1450.75 2386.12 1451.37 2381.58 1451.39 2384.41 1451.64 2370 1451.45 2346.18 1451.56C2321.5 1452.58 2297.3 1454.37 2253.07 1450.84L2242.56 1449.79 2230.88 1449.64 2218.36 1449.64 2225.46 1448.08 2215.82 1447.11C2201.94 1445.47 2186.48 1443.4 2169.14 1440.81L2153.68 1430.12 2148.99 1428.74C2081.5 1399.45 2065.42 1330.01 1973.02 1204.79L1948.71 1172.98 2006.12 1172.98C2007.73 1172.98 2011.77 1173.16 2018.22 1173.52 2024.67 1173.88 2030.14 1174.06 2034.62 1174.06 2096.09 1174.06 2127.64 1147.34 2129.25 1093.9 2129.25 1065.66 2121.99 1043.23 2107.47 1026.61 2092.96 1009.99 2073.78 1001.68 2049.94 1001.68L1971.02 1001.68 1969.15 1002.79C1964.68 1004.7 1959.52 1007.08 1957.64 1009.95L1946.39 1027.13 1946.39 1024.99 1945.36 1024.99 1945.36 1172.98 1947.16 1172.98 1949.87 1184.68 1945.36 1176.76 1945.36 1449.64 1835.5 1449.64 1835.5 1449.96 1806.91 1449.96C1805.12 1447.41 1821.22 1442.33 1824.79 1434.69L1828.68 1426.36 1828.68 963.282 1827.06 959.635C1825.15 955.184 1822.76 950.032 1819.88 948.162L1802.65 936.941 1831.37 936.941 1831.37 937.88 2064.46 937.88C2178.99 937.88 2236.25 987.296 2236.25 1086.13 2234.64 1126.52 2222.99 1156.72 2201.3 1176.74 2179.61 1196.75 2155.6 1209.8 2129.25 1215.88 2109.18 1220.7 2096.72 1223.11 2091.88 1223.11 2090.45 1223.11 2089.73 1222.85 2089.73 1222.31L2090.72 1223.84 2102.8 1235.92C2131.61 1268.89 2184.69 1348.47 2211.03 1376.79 2237.91 1405.7 2236.13 1428.92 2302.06 1442.27L2318.69 1444.87 2334.66 1443.51C2341.57 1442.6 2347.18 1441.54 2352.39 1440.47L2353.15 1440.35 2379.64 1425.3C2390.43 1414.83 2397.09 1402.9 2401.19 1390.27L2406.23 1330.15 2406.23 1036.37 2405.01 1027.7 2405.01 1031.01C2403.09 1032.88 2399.27 1016.02 2393.52 1012.28L2377.25 1001.68 2265.36 1001.68 2265.36 1001.06 2236.67 1001.06C2251.03 968.528 2260.61 936 2265.4 936Z" fill="#FFFFFF" fill-rule="evenodd"/></g></svg>